<svg xmlns="http://www.w3.org/2000/svg" version="1.1" xmlns:xlink="http://www.w3.org/1999/xlink" xmlns:svgjs="http://svgjs.dev/svgjs" width="1000" height="1000" viewBox="0 0 1000 1000"><rect width="1000" height="1000" fill="#ffffff"></rect><g transform="matrix(0.7,0,0,0.7,149.84897959183667,150.19913061224486)"><svg viewBox="0 0 343 343" data-background-color="#ffffff" preserveAspectRatio="xMidYMid meet" height="999" width="1000" xmlns="http://www.w3.org/2000/svg" xmlns:xlink="http://www.w3.org/1999/xlink"><g id="tight-bounds" transform="matrix(1,0,0,1,0.0740000000000407,0.07400000000001228)"><svg viewBox="0 0 342.85155851775386 342.85155851775386" height="342.85155851775386" width="342.85155851775386"><g><svg></svg></g><g><svg viewBox="0 0 342.85155851775386 342.85155851775386" height="342.85155851775386" width="342.85155851775386"><g><path d="M0 171.426c0-94.676 76.75-171.426 171.426-171.426 94.676 0 171.426 76.75 171.426 171.426 0 94.676-76.75 171.426-171.426 171.426-94.676 0-171.426-76.75-171.426-171.426zM171.426 339.975c93.087 0 168.549-75.462 168.549-168.549 0-93.087-75.462-168.549-168.549-168.549-93.087 0-168.549 75.462-168.549 168.549 0 93.087 75.462 168.549 168.549 168.549z" data-fill-palette-color="tertiary" fill="#000000" stroke="transparent"></path><ellipse rx="164.56874808852186" ry="164.56874808852186" cx="171.42577925887693" cy="171.42577925887693" fill="#000000" stroke="transparent" stroke-width="0" fill-opacity="1" data-fill-palette-color="tertiary"></ellipse></g><g transform="matrix(1,0,0,1,64.84655864529837,129.66581333427465)"><svg viewBox="0 0 213.1584412271571 83.51993184920457" height="83.51993184920457" width="213.1584412271571"><g><svg viewBox="0 0 213.1584412271571 83.51993184920457" height="83.51993184920457" width="213.1584412271571"><g><svg viewBox="0 0 213.1584412271571 83.51993184920457" height="83.51993184920457" width="213.1584412271571"><g transform="matrix(1,0,0,1,0,51.61866853629671)"><svg viewBox="0 0 213.1584412271571 31.90126331290786" height="31.90126331290786" width="213.1584412271571"><g id="textblocktransform"><svg viewBox="0 0 213.1584412271571 31.90126331290786" height="31.90126331290786" width="213.1584412271571" id="textblock"><g><svg viewBox="0 0 213.1584412271571 31.90126331290786" height="31.90126331290786" width="213.1584412271571"><g transform="matrix(1,0,0,1,0,0)"><svg width="213.1584412271571" viewBox="4 -35 235.17999267578125 35.20000076293945" height="31.90126331290786" data-palette-color="#ffffff"><path d="M22.2-35L21.95-32 7.4-32 7.4-18.85 20.9-18.85 20.65-15.85 7.4-15.85 7.4-3 23.2-3 22.95 0 4 0 4-35 22.2-35ZM42.65-16.4L42.4-21.65Q40.35-22.3 38.2-22.3L38.2-22.3Q33.85-22.3 31.22-19.5 28.6-16.7 28.6-11.6L28.6-11.6Q28.6-2.7 36.85-2.7L36.85-2.7Q40.15-2.7 43.65-3.8L43.65-3.8Q44.35-4 44.5-4.1L44.5-4.1 45.3-1.4Q43.55-0.35 38.95 0.1L38.95 0.1Q37.65 0.2 36.2 0.2L36.2 0.2Q31.95 0.2 29.2-1.9L29.2-1.9Q25.35-4.8 25.35-11.45 25.35-18.1 28.92-21.68 32.5-25.25 38.15-25.25L38.15-25.25Q39.95-25.25 41.97-24.78 44-24.3 45.1-23.3L45.1-23.3 45.1-16.75 42.65-16.4ZM49.45-6.4L49.45-6.4Q48.55-8.8 48.55-12L48.55-12Q48.55-18.15 52-21.68 55.45-25.2 60.65-25.2L60.65-25.2Q68.8-25.2 71.34-18.6L71.34-18.6Q72.3-16.2 72.3-13L72.3-13Q72.3-6.85 68.84-3.33 65.4 0.2 60.2 0.2L60.2 0.2Q52.05 0.2 49.45-6.4ZM51.8-12.35Q51.8-7.75 54.17-5.23 56.55-2.7 60.3-2.7 64.05-2.7 66.55-5.38 69.05-8.05 69.05-12.65 69.05-17.25 66.7-19.78 64.34-22.3 60.57-22.3 56.8-22.3 54.3-19.63 51.8-16.95 51.8-12.35ZM85.64-22.25L85.64-22.25Q82.84-22.1 79.59-20.4L79.59-20.4 79.59 0 76.34 0 76.34-25 79.59-25.25 79.59-22.45Q82.94-25 86.09-25.15L86.09-25.15Q91.39-25.15 93.39-22.5L93.39-22.5Q97.19-25 100.74-25.15L100.74-25.15Q103.79-25.15 105.44-24.4 107.09-23.65 108.17-22.28 109.24-20.9 109.24-18.4L109.24-18.4 109.24 0 105.99 0 105.99-17.55Q105.99-19.4 105.14-20.4L105.14-20.4Q103.59-22.25 100.74-22.25L100.74-22.25Q97.74-22.25 94.34-20.45L94.34-20.45Q94.59-19.45 94.59-18.4L94.59-18.4 94.59 0 91.34 0 91.34-17.55Q91.34-19.4 90.54-20.4L90.54-20.4Q88.94-22.25 85.64-22.25ZM125.04-22.25L125.04-22.25Q122.24-22.1 118.99-20.4L118.99-20.4 118.99 0 115.74 0 115.74-25 118.99-25.25 118.99-22.45Q122.34-25 125.49-25.15L125.49-25.15Q130.79-25.15 132.79-22.5L132.79-22.5Q136.59-25 140.14-25.15L140.14-25.15Q143.19-25.15 144.84-24.4 146.49-23.65 147.56-22.28 148.64-20.9 148.64-18.4L148.64-18.4 148.64 0 145.39 0 145.39-17.55Q145.39-19.4 144.54-20.4L144.54-20.4Q142.99-22.25 140.14-22.25L140.14-22.25Q137.14-22.25 133.74-20.45L133.74-20.45Q133.99-19.45 133.99-18.4L133.99-18.4 133.99 0 130.74 0 130.74-17.55Q130.74-19.4 129.94-20.4L129.94-20.4Q128.34-22.25 125.04-22.25ZM157.64-12.3L157.64-11.5Q157.64-2.7 166.04-2.7L166.04-2.7Q169.59-2.7 172.54-3.65L172.54-3.65Q173.29-3.9 173.59-4.05L173.59-4.05 174.34-1.4Q172.59-0.35 167.99 0.1L167.99 0.1Q166.69 0.2 165.24 0.2L165.24 0.2Q161.04 0.2 158.24-1.9L158.24-1.9Q154.39-4.75 154.39-11.4 154.39-18.05 157.86-21.63 161.34-25.2 166.29-25.2 171.24-25.2 173.74-22L173.74-22Q175.64-19.45 175.64-15.25L175.64-15.25Q175.64-14.25 175.54-13.15L175.54-13.15 157.69-13.15Q157.64-12.75 157.64-12.3L157.64-12.3ZM166.49-22.1L166.49-22.1Q163.39-22.1 161.19-20.23 158.99-18.35 158.14-15.4L158.14-15.4 172.69-15.4Q172.44-20.95 168.39-21.85L168.39-21.85Q167.49-22.1 166.49-22.1ZM194.29-24.5L192.99-21.5Q192.19-21.95 191.29-21.95 190.39-21.95 190.29-21.9L190.29-21.9Q188.39-21.9 186.46-20.53 184.54-19.15 183.19-17.45L183.19-17.45 183.19 0 179.94 0 179.94-25 183.19-25.25 183.19-19.65Q185.04-22 186.34-22.95L186.34-22.95Q188.74-24.75 190.94-24.85L190.94-24.85Q191.24-24.9 192.04-24.9 192.84-24.9 194.29-24.5L194.29-24.5ZM211.38-16.4L211.13-21.65Q209.08-22.3 206.93-22.3L206.93-22.3Q202.58-22.3 199.96-19.5 197.33-16.7 197.33-11.6L197.33-11.6Q197.33-2.7 205.58-2.7L205.58-2.7Q208.88-2.7 212.38-3.8L212.38-3.8Q213.08-4 213.23-4.1L213.23-4.1 214.03-1.4Q212.28-0.35 207.68 0.1L207.68 0.1Q206.38 0.2 204.93 0.2L204.93 0.2Q200.68 0.2 197.93-1.9L197.93-1.9Q194.08-4.8 194.08-11.45 194.08-18.1 197.66-21.68 201.23-25.25 206.88-25.25L206.88-25.25Q208.68-25.25 210.71-24.78 212.73-24.3 213.83-23.3L213.83-23.3 213.83-16.75 211.38-16.4ZM221.18-12.3L221.18-11.5Q221.18-2.7 229.58-2.7L229.58-2.7Q233.13-2.7 236.08-3.65L236.08-3.65Q236.83-3.9 237.13-4.05L237.13-4.05 237.88-1.4Q236.13-0.35 231.53 0.1L231.53 0.1Q230.23 0.2 228.78 0.2L228.78 0.2Q224.58 0.2 221.78-1.9L221.78-1.9Q217.93-4.75 217.93-11.4 217.93-18.05 221.41-21.63 224.88-25.2 229.83-25.2 234.78-25.2 237.28-22L237.28-22Q239.18-19.45 239.18-15.25L239.18-15.25Q239.18-14.25 239.08-13.15L239.08-13.15 221.23-13.15Q221.18-12.75 221.18-12.3L221.18-12.3ZM230.03-22.1L230.03-22.1Q226.93-22.1 224.73-20.23 222.53-18.35 221.68-15.4L221.68-15.4 236.23-15.4Q235.98-20.95 231.93-21.85L231.93-21.85Q231.03-22.1 230.03-22.1Z" opacity="1" transform="matrix(1,0,0,1,0,0)" fill="#ffffff" class="undefined-text-0" data-fill-palette-color="quaternary" id="text-0"></path></svg></g></svg></g></svg></g></svg></g><g transform="matrix(1,0,0,1,85.43796772306953,0)"><svg viewBox="0 0 42.28250578101805 44.08754589843867" height="44.08754589843867" width="42.28250578101805"><g><svg xmlns="http://www.w3.org/2000/svg" xmlns:xlink="http://www.w3.org/1999/xlink" version="1.1" x="0" y="0" viewBox="6.925553321838379 5.199999809265137 86.14889526367188 89.82659149169922" enable-background="new 0 0 100 100" xml:space="preserve" height="44.08754589843867" width="42.28250578101805" class="icon-icon-0" data-fill-palette-color="quaternary" id="icon-0"><g fill="#ffffff" data-fill-palette-color="quaternary"><path d="M55.2 10.3c0 2.6-1.9 4.7-4.3 5.1v20.9l-0.6 0-0.2 0-0.2 0-0.6 0-0.1 0V15.5c-2.5-0.4-4.3-2.6-4.3-5.1 0-2.9 2.3-5.2 5.2-5.2S55.2 7.5 55.2 10.3z" fill="#ffffff" data-fill-palette-color="quaternary"></path><path d="M50.4 43.5c0.2 0.1 0.4 0.1 0.5 0.2v7.4c-0.2 0.2-0.5 0.3-0.8 0.4-0.3-0.1-0.7-0.2-0.9-0.4 0 0 0 0 0 0v-7.3c0 0 0 0 0 0 0.1-0.1 0.3-0.2 0.6-0.2l0.1 0c0.1 0 0.2-0.1 0.3-0.1C50.2 43.4 50.3 43.5 50.4 43.5L50.4 43.5z" fill="#ffffff" data-fill-palette-color="quaternary"></path><path d="M50.9 59v5.8c-0.1 0.1-0.2 0.2-0.3 0.3-0.1 0.1-0.3 0.2-0.4 0.2l0 0 0 0c0 0 0 0-0.1 0 0 0 0 0-0.1 0l0 0 0 0c-0.1 0-0.3-0.2-0.4-0.2-0.1-0.1-0.3-0.3-0.4-0.4v-5.6c0 0 0.1-0.1 0.1-0.1 0.1-0.1 0.3-0.2 0.4-0.2 0.1 0 0.2-0.1 0.2-0.1h0l0 0c0 0 0.1 0 0.1 0 0 0 0.1 0 0.1 0l0 0c0 0 0 0 0.1 0 0 0 0.1 0 0.1 0 0.1 0 0.1 0 0.2 0.1C50.6 58.8 50.7 58.8 50.9 59L50.9 59z" fill="#ffffff" data-fill-palette-color="quaternary"></path><path d="M50.9 73.1v4.5c-0.1 0.1-0.1 0.2-0.2 0.2-0.1 0.1-0.3 0.2-0.5 0.3l0 0c0 0-0.1 0-0.1 0h0c0 0-0.1 0-0.1 0-0.2-0.1-0.4-0.2-0.5-0.3-0.1-0.1-0.2-0.2-0.2-0.3 0-0.1-0.1-0.1-0.1-0.2v-4c0.1-0.1 0.1-0.3 0.3-0.5 0.1-0.1 0.2-0.2 0.3-0.2 0.1 0 0.2-0.1 0.3-0.1h0c0.1 0 0.2 0 0.3 0.1 0.1 0.1 0.2 0.2 0.3 0.2C50.8 72.9 50.8 73 50.9 73.1z" fill="#ffffff" data-fill-palette-color="quaternary"></path><path d="M50.9 85.3v4c-0.2 0.1-0.3 0.1-0.5 0.2-0.1 0-0.3 0-0.3 0 0 0 0 0 0 0 0 0 0 0 0 0-0.1 0-0.2 0-0.3 0-0.2 0-0.4-0.1-0.6-0.2v-3.9c0.2-0.1 0.4-0.2 0.5-0.2 0.1 0 0.2-0.1 0.4-0.1l0 0 0 0c0.1 0 0.2 0 0.4 0.1C50.6 85.2 50.8 85.3 50.9 85.3z" fill="#ffffff" data-fill-palette-color="quaternary"></path><path d="M93 12.3C93 12.3 93 12.3 93 12.3c-1.6 4-7.3 13.8-23 17.9l0-0.1 0-0.1c0-0.2-0.1-0.5-0.2-0.7-0.1-0.5-0.3-1-0.5-1.4-0.3-0.8-0.8-1.5-1.3-2.3-0.8-1.1-1.8-2-3-2.9-0.9-0.7-1.9-1.2-2.9-1.7-1.5-0.7-3-1.1-4.6-1.4-0.6-0.1-1.1-0.1-1.3-0.1l-0.2 0c-0.1 0-0.2 0-0.3 0-0.4 0-0.9 0-1.2 0.1v-2.5c0.9-0.9 1.7-1.9 2.2-3.1 0.4-0.9 1-1.7 1.7-2.3 1.2-1.1 3.4-1.3 4.9-0.7 4.4 2.1 24.7 2 27.9-0.2C92.1 10.3 93.4 11.2 93 12.3z" fill="#ffffff" data-fill-palette-color="quaternary"></path><path d="M7 12.3C7 12.3 7 12.3 7 12.3c1.6 4 7.3 13.8 23 17.9l0-0.1 0-0.1c0-0.2 0.1-0.5 0.2-0.7 0.1-0.5 0.3-1 0.5-1.4 0.3-0.8 0.8-1.5 1.3-2.3 0.8-1.1 1.8-2 3-2.9 0.9-0.7 1.9-1.2 2.9-1.7 1.5-0.7 3-1.1 4.6-1.4 0.6-0.1 1.1-0.1 1.3-0.1l0.2 0c0.1 0 0.2 0 0.3 0 0.4 0 0.9 0 1.2 0.1v-2.5c-0.9-0.9-1.7-1.9-2.2-3.1-0.4-0.9-1-1.7-1.7-2.3-1.2-1.1-3.4-1.3-4.9-0.7-4.4 2.1-24.7 2-27.9-0.2C7.9 10.3 6.6 11.2 7 12.3z" fill="#ffffff" data-fill-palette-color="quaternary"></path><path d="M68.5 31.3c-0.2-4.3-3.9-7.4-7.6-9-1.7-0.7-3.8-1.3-5.7-1.1-1.3 0.1-2.3 0.9-2.8 2.2-0.7 1.6-0.7 3.4-0.8 5.2 0 1.5 0.1 3.1 1.3 4.1 0.8 0.7 2 1 3.1 0.6 1.1-0.4 1.8-1.4 1.9-2.5 0.1-0.7 0-1.5 0.4-2.1 0.3-0.5 0.7-0.8 1.3-1 0.9-0.3 1.9-0.3 2.8-0.1 0.5 0.1 0.6 0.3 1 0.7 0.7 0.7 1.3 1.7 1.5 2.7 0.3 1.6-0.6 3-1.8 4-1.9 1.5-4.3 2.2-6.7 2.6-1.9 0.3-3.9 0.5-5.8 0.5-3.8 0-7.7-0.2-11.2-1.8-1.9-0.9-4-2.4-4-4.7 0-1.6 1.1-2.8 2.2-3.8 1.6-0.4 3.9-0.5 4.6 1.4 0.3 0.7 0.1 1.4 0.3 2.2 0.1 0.6 0.4 1.1 0.8 1.5 0.8 0.7 2 0.9 3 0.6 1.2-0.4 2-1.4 2.3-2.7 0.2-0.9 0.1-1.9 0.1-2.8 0-0.9-0.1-1.8-0.3-2.8-0.2-1.3-0.7-2.7-1.9-3.4-1.4-0.8-3.2-0.5-4.6-0.1-2.3 0.5-4.5 1.6-6.3 3-1.8 1.4-3.4 3.5-3.7 5.8-0.3 2.4 0.5 4.8 2.1 6.6 2.3 2.4 5.6 3.6 8.8 4.2-1.5 1.7-2.4 4.1-2.3 6.4 0.1 3.1 1.8 5.8 4.4 7.5-2.2 1.7-3.3 4.2-3.4 6.9-0.1 2.7 1.5 5.4 3.6 7-2 1.5-3.2 3.8-3.3 6.3-0.1 2.6 1.3 5.3 3.4 6.7-1.5 1.5-2.4 3.7-2.2 5.8 0.1 2.3 1.4 4.6 3.4 5.9 0.9 0.6 2 1 3.1 1.2 0.8 0.1 1.7-0.1 2.5-0.3 2.2-0.8 4-2.5 4.8-4.7 1-2.7 0.3-5.8-1.8-7.9 2.1-1.5 3.5-4.1 3.4-6.7 0-2.5-1.3-4.8-3.3-6.3 2.2-1.6 3.6-4.2 3.6-7 0-2.7-1.3-5.3-3.4-6.9 2.6-1.7 4.3-4.4 4.4-7.5 0.1-2.3-0.8-4.7-2.3-6.4C62.3 40.2 68.7 37.2 68.5 31.3zM46 47.9c-0.1-1.8 0.2-3.8 1.6-5.1 0.6-0.5 1.6-1 2.5-1 0.9 0 1.9 0.6 2.5 1.1 1.4 1.3 1.6 3.4 1.5 5.2-0.2 2.3-1.5 4.6-3.9 5.1-0.5 0.1-1.2-0.3-1.7-0.5-0.6-0.3-1-0.8-1.4-1.3C46.4 50.4 46 49.1 46 47.9 46 47.8 46 48.3 46 47.9zM50.5 79.7c-1.8 0.2-3.2-1.3-3.2-3.1 0-1.7-0.3-3.9 1.2-5.1 0.7-0.5 1.5-0.8 2.3-0.5 1.2 0.4 1.8 1.5 2 2.6 0.1 0.8 0 1.7 0 2.6 0 1-0.2 2-0.9 2.7C51.5 79.3 51 79.6 50.5 79.7zM52.7 65c-0.4 1-1.3 1.8-2.4 2-0.8 0.2-1.7-0.4-2.2-1-1.4-1.4-1.2-3.7-1.1-5.5 0.1-1.1 0.4-2.3 1.4-3 0.5-0.4 1.2-0.6 1.9-0.6 0-0.1 1.1 0.3 1.1 0.3 0.5 0.3 1 0.7 1.2 1.2 0.5 0.9 0.5 2 0.5 3C53.1 62.7 53.2 63.9 52.7 65 52.5 65.5 52.8 64.7 52.7 65zM53.8 87.3c0 2-1.6 3.7-3.5 3.9-1.9 0.2-3.6-1.5-3.9-3.3-0.3-2 1.1-4 3.1-4.4 2.1-0.4 4.3 1.5 4.3 3.6C53.8 87.2 53.8 87.3 53.8 87.3z" fill="#ffffff" data-fill-palette-color="quaternary"></path></g></svg></g></svg></g><g></g></svg></g></svg></g></svg></g></svg></g><defs></defs></svg><rect width="342.85155851775386" height="342.85155851775386" fill="none" stroke="none" visibility="hidden"></rect></g></svg></g></svg>